<mxfile host="app.diagrams.net" modified="2020-09-11T14:10:14.272Z" agent="5.0 (Windows NT 10.0; Win64; x64) AppleWebKit/537.36 (KHTML, like Gecko) Chrome/85.0.4183.102 Safari/537.36" etag="RtRcqJGf0wvgaWIVOqMX" version="13.6.9" type="github">
  <diagram name="Page-1" id="e7e014a7-5840-1c2e-5031-d8a46d1fe8dd">
    <mxGraphModel dx="2899" dy="913" grid="1" gridSize="10" guides="1" tooltips="1" connect="1" arrows="1" fold="1" page="1" pageScale="1" pageWidth="1169" pageHeight="826" background="#ffffff" math="0" shadow="0">
      <root>
        <mxCell id="0" />
        <mxCell id="1" parent="0" />
        <mxCell id="C5NPxq1pUjgtMMzN8J-K-41" value="Адміністратор" style="shape=umlActor;html=1;verticalLabelPosition=bottom;verticalAlign=top;align=center;" vertex="1" parent="1">
          <mxGeometry x="510" y="10" width="30" height="60" as="geometry" />
        </mxCell>
        <mxCell id="C5NPxq1pUjgtMMzN8J-K-44" value="Переглянути інформацію про кінотеатр як адмін" style="shape=ellipse;html=1;strokeWidth=3;fontStyle=1;whiteSpace=wrap;align=center;perimeter=ellipsePerimeter;" vertex="1" parent="1">
          <mxGeometry x="465" y="120" width="120" height="60" as="geometry" />
        </mxCell>
        <mxCell id="C5NPxq1pUjgtMMzN8J-K-45" value="Відкрити базу даних персоналу" style="shape=ellipse;html=1;strokeWidth=3;fontStyle=1;whiteSpace=wrap;align=center;perimeter=ellipsePerimeter;" vertex="1" parent="1">
          <mxGeometry x="240" y="240" width="120" height="60" as="geometry" />
        </mxCell>
        <mxCell id="C5NPxq1pUjgtMMzN8J-K-46" value="Відкрити розділ продаж" style="shape=ellipse;html=1;strokeWidth=3;fontStyle=1;whiteSpace=wrap;align=center;perimeter=ellipsePerimeter;" vertex="1" parent="1">
          <mxGeometry x="470" y="240" width="120" height="60" as="geometry" />
        </mxCell>
        <mxCell id="C5NPxq1pUjgtMMzN8J-K-47" value="Відкрити розділ залів" style="shape=ellipse;html=1;strokeWidth=3;fontStyle=1;whiteSpace=wrap;align=center;perimeter=ellipsePerimeter;" vertex="1" parent="1">
          <mxGeometry x="710" y="240" width="120" height="60" as="geometry" />
        </mxCell>
        <mxCell id="C5NPxq1pUjgtMMzN8J-K-51" value="Відкрити розділ фільмів" style="shape=ellipse;html=1;strokeWidth=3;fontStyle=1;whiteSpace=wrap;align=center;perimeter=ellipsePerimeter;" vertex="1" parent="1">
          <mxGeometry x="900" y="240" width="120" height="60" as="geometry" />
        </mxCell>
        <mxCell id="C5NPxq1pUjgtMMzN8J-K-52" value="Відкрити розділ технічного обслуговування/техніки" style="shape=ellipse;html=1;strokeWidth=3;fontStyle=1;whiteSpace=wrap;align=center;perimeter=ellipsePerimeter;" vertex="1" parent="1">
          <mxGeometry x="30" y="240" width="120" height="60" as="geometry" />
        </mxCell>
        <mxCell id="C5NPxq1pUjgtMMzN8J-K-54" value="&amp;lt;&amp;lt;include&amp;gt;&amp;gt;" style="edgeStyle=none;html=1;endArrow=open;verticalAlign=bottom;dashed=1;labelBackgroundColor=none;exitX=1;exitY=0.5;exitDx=0;exitDy=0;" edge="1" parent="1" source="C5NPxq1pUjgtMMzN8J-K-44" target="C5NPxq1pUjgtMMzN8J-K-55">
          <mxGeometry width="160" relative="1" as="geometry">
            <mxPoint x="597" y="174" as="sourcePoint" />
            <mxPoint x="757" y="150" as="targetPoint" />
            <Array as="points">
              <mxPoint x="677" y="150" />
            </Array>
          </mxGeometry>
        </mxCell>
        <mxCell id="C5NPxq1pUjgtMMzN8J-K-55" value="Авторизуватись як адміністратор" style="shape=ellipse;html=1;strokeWidth=3;fontStyle=1;whiteSpace=wrap;align=center;perimeter=ellipsePerimeter;" vertex="1" parent="1">
          <mxGeometry x="697" y="120" width="120" height="60" as="geometry" />
        </mxCell>
        <mxCell id="C5NPxq1pUjgtMMzN8J-K-56" value="&amp;lt;&amp;lt;extend&amp;gt;&amp;gt;" style="edgeStyle=none;html=1;startArrow=open;endArrow=none;startSize=12;verticalAlign=bottom;dashed=1;labelBackgroundColor=none;exitX=0.5;exitY=1;exitDx=0;exitDy=0;" edge="1" parent="1" source="C5NPxq1pUjgtMMzN8J-K-44">
          <mxGeometry width="160" relative="1" as="geometry">
            <mxPoint x="440" y="260" as="sourcePoint" />
            <mxPoint x="525" y="240" as="targetPoint" />
          </mxGeometry>
        </mxCell>
        <mxCell id="C5NPxq1pUjgtMMzN8J-K-57" value="" style="edgeStyle=none;html=1;endArrow=none;verticalAlign=bottom;exitX=0.48;exitY=0.71;exitDx=0;exitDy=0;exitPerimeter=0;entryX=0.5;entryY=0;entryDx=0;entryDy=0;" edge="1" parent="1" source="C5NPxq1pUjgtMMzN8J-K-41" target="C5NPxq1pUjgtMMzN8J-K-44">
          <mxGeometry width="160" relative="1" as="geometry">
            <mxPoint x="410" y="280" as="sourcePoint" />
            <mxPoint x="570" y="280" as="targetPoint" />
          </mxGeometry>
        </mxCell>
        <mxCell id="C5NPxq1pUjgtMMzN8J-K-58" value="Ввести нові дані в базу даних витрат/прибутку" style="shape=ellipse;html=1;strokeWidth=3;fontStyle=1;whiteSpace=wrap;align=center;perimeter=ellipsePerimeter;" vertex="1" parent="1">
          <mxGeometry x="465" y="580" width="120" height="60" as="geometry" />
        </mxCell>
        <mxCell id="C5NPxq1pUjgtMMzN8J-K-59" value="&amp;lt;&amp;lt;extend&amp;gt;&amp;gt;" style="edgeStyle=none;html=1;startArrow=open;endArrow=none;startSize=12;verticalAlign=bottom;dashed=1;labelBackgroundColor=none;exitX=0.5;exitY=1;exitDx=0;exitDy=0;entryX=0.5;entryY=0;entryDx=0;entryDy=0;" edge="1" parent="1" source="C5NPxq1pUjgtMMzN8J-K-44" target="C5NPxq1pUjgtMMzN8J-K-45">
          <mxGeometry width="160" relative="1" as="geometry">
            <mxPoint x="410" y="380" as="sourcePoint" />
            <mxPoint x="570" y="380" as="targetPoint" />
          </mxGeometry>
        </mxCell>
        <mxCell id="C5NPxq1pUjgtMMzN8J-K-60" value="&amp;lt;&amp;lt;extend&amp;gt;&amp;gt;" style="edgeStyle=none;html=1;startArrow=open;endArrow=none;startSize=12;verticalAlign=bottom;dashed=1;labelBackgroundColor=none;entryX=0.427;entryY=-0.057;entryDx=0;entryDy=0;entryPerimeter=0;" edge="1" parent="1" target="C5NPxq1pUjgtMMzN8J-K-47">
          <mxGeometry width="160" relative="1" as="geometry">
            <mxPoint x="520" y="180" as="sourcePoint" />
            <mxPoint x="570" y="380" as="targetPoint" />
          </mxGeometry>
        </mxCell>
        <mxCell id="C5NPxq1pUjgtMMzN8J-K-61" value="&amp;lt;&amp;lt;extend&amp;gt;&amp;gt;" style="edgeStyle=none;html=1;startArrow=open;endArrow=none;startSize=12;verticalAlign=bottom;dashed=1;labelBackgroundColor=none;entryX=0.43;entryY=-0.043;entryDx=0;entryDy=0;entryPerimeter=0;" edge="1" parent="1" target="C5NPxq1pUjgtMMzN8J-K-51">
          <mxGeometry width="160" relative="1" as="geometry">
            <mxPoint x="530" y="180" as="sourcePoint" />
            <mxPoint x="570" y="270" as="targetPoint" />
          </mxGeometry>
        </mxCell>
        <mxCell id="C5NPxq1pUjgtMMzN8J-K-62" value="&amp;lt;&amp;lt;extend&amp;gt;&amp;gt;" style="edgeStyle=none;html=1;startArrow=open;endArrow=none;startSize=12;verticalAlign=bottom;dashed=1;labelBackgroundColor=none;entryX=0.64;entryY=-0.03;entryDx=0;entryDy=0;entryPerimeter=0;" edge="1" parent="1" target="C5NPxq1pUjgtMMzN8J-K-52">
          <mxGeometry width="160" relative="1" as="geometry">
            <mxPoint x="520" y="180" as="sourcePoint" />
            <mxPoint x="570" y="270" as="targetPoint" />
          </mxGeometry>
        </mxCell>
        <mxCell id="C5NPxq1pUjgtMMzN8J-K-63" value="" style="edgeStyle=none;html=1;endArrow=none;verticalAlign=bottom;exitX=0.533;exitY=0.697;exitDx=0;exitDy=0;exitPerimeter=0;entryX=0.5;entryY=0;entryDx=0;entryDy=0;" edge="1" parent="1" source="C5NPxq1pUjgtMMzN8J-K-41" target="C5NPxq1pUjgtMMzN8J-K-55">
          <mxGeometry width="160" relative="1" as="geometry">
            <mxPoint x="410" y="220" as="sourcePoint" />
            <mxPoint x="570" y="220" as="targetPoint" />
          </mxGeometry>
        </mxCell>
        <mxCell id="C5NPxq1pUjgtMMzN8J-K-64" value="Авторизуватись як глядач" style="shape=ellipse;html=1;strokeWidth=3;fontStyle=1;whiteSpace=wrap;align=center;perimeter=ellipsePerimeter;" vertex="1" parent="1">
          <mxGeometry x="230" y="110" width="120" height="60" as="geometry" />
        </mxCell>
        <mxCell id="C5NPxq1pUjgtMMzN8J-K-65" value="" style="edgeStyle=none;html=1;endArrow=none;verticalAlign=bottom;entryX=0.48;entryY=0.71;entryDx=0;entryDy=0;entryPerimeter=0;exitX=0.5;exitY=0;exitDx=0;exitDy=0;" edge="1" parent="1" source="C5NPxq1pUjgtMMzN8J-K-64" target="C5NPxq1pUjgtMMzN8J-K-41">
          <mxGeometry width="160" relative="1" as="geometry">
            <mxPoint x="410" y="210" as="sourcePoint" />
            <mxPoint x="570" y="210" as="targetPoint" />
          </mxGeometry>
        </mxCell>
        <mxCell id="C5NPxq1pUjgtMMzN8J-K-72" value="Далі він змінює роль і стає глядачем" style="shape=note;size=15;align=left;spacingLeft=10;html=1;whiteSpace=wrap;" vertex="1" parent="1">
          <mxGeometry x="80" y="50" width="150" height="40" as="geometry" />
        </mxCell>
        <mxCell id="C5NPxq1pUjgtMMzN8J-K-73" value="" style="edgeStyle=none;endArrow=none;exitX=0.4;exitY=0;dashed=1;html=1;" edge="1" source="C5NPxq1pUjgtMMzN8J-K-72" parent="1">
          <mxGeometry x="1" relative="1" as="geometry">
            <mxPoint x="140" y="50" as="targetPoint" />
          </mxGeometry>
        </mxCell>
        <mxCell id="C5NPxq1pUjgtMMzN8J-K-74" value="" style="edgeStyle=none;endArrow=none;dashed=1;html=1;entryX=0;entryY=0;entryDx=0;entryDy=0;" edge="1" parent="1" target="C5NPxq1pUjgtMMzN8J-K-64">
          <mxGeometry x="1" relative="1" as="geometry">
            <mxPoint x="260" y="10" as="targetPoint" />
            <mxPoint x="230" y="90" as="sourcePoint" />
          </mxGeometry>
        </mxCell>
        <mxCell id="C5NPxq1pUjgtMMzN8J-K-75" value="Змінити вартість квитків" style="shape=ellipse;html=1;strokeWidth=3;fontStyle=1;whiteSpace=wrap;align=center;perimeter=ellipsePerimeter;" vertex="1" parent="1">
          <mxGeometry x="340" y="470" width="120" height="60" as="geometry" />
        </mxCell>
        <mxCell id="C5NPxq1pUjgtMMzN8J-K-76" value="Переглянути всю інформацію про продаж квитків" style="shape=ellipse;html=1;strokeWidth=3;fontStyle=1;whiteSpace=wrap;align=center;perimeter=ellipsePerimeter;" vertex="1" parent="1">
          <mxGeometry x="340" y="340" width="120" height="60" as="geometry" />
        </mxCell>
        <mxCell id="C5NPxq1pUjgtMMzN8J-K-78" value="Додати акції/сертифікати" style="shape=ellipse;html=1;strokeWidth=3;fontStyle=1;whiteSpace=wrap;align=center;perimeter=ellipsePerimeter;" vertex="1" parent="1">
          <mxGeometry x="585" y="383" width="120" height="60" as="geometry" />
        </mxCell>
        <mxCell id="C5NPxq1pUjgtMMzN8J-K-79" value="&amp;lt;&amp;lt;include&amp;gt;&amp;gt;" style="edgeStyle=none;html=1;endArrow=open;verticalAlign=bottom;dashed=1;labelBackgroundColor=none;exitX=0.5;exitY=1;exitDx=0;exitDy=0;entryX=0.5;entryY=0;entryDx=0;entryDy=0;" edge="1" parent="1" source="C5NPxq1pUjgtMMzN8J-K-75" target="C5NPxq1pUjgtMMzN8J-K-58">
          <mxGeometry width="160" relative="1" as="geometry">
            <mxPoint x="390" y="510" as="sourcePoint" />
            <mxPoint x="550" y="510" as="targetPoint" />
          </mxGeometry>
        </mxCell>
        <mxCell id="C5NPxq1pUjgtMMzN8J-K-80" value="&amp;lt;&amp;lt;include&amp;gt;&amp;gt;" style="edgeStyle=none;html=1;endArrow=open;verticalAlign=bottom;dashed=1;labelBackgroundColor=none;exitX=0.5;exitY=1;exitDx=0;exitDy=0;" edge="1" parent="1" source="C5NPxq1pUjgtMMzN8J-K-78">
          <mxGeometry width="160" relative="1" as="geometry">
            <mxPoint x="390" y="550" as="sourcePoint" />
            <mxPoint x="530" y="580" as="targetPoint" />
          </mxGeometry>
        </mxCell>
        <mxCell id="C5NPxq1pUjgtMMzN8J-K-82" value="Інформація на сайті після цього змінюється автоматично" style="shape=note;size=15;align=left;spacingLeft=10;html=1;whiteSpace=wrap;" vertex="1" parent="1">
          <mxGeometry x="875" y="720" width="150" height="40" as="geometry" />
        </mxCell>
        <mxCell id="C5NPxq1pUjgtMMzN8J-K-83" value="" style="edgeStyle=none;endArrow=none;exitX=0;exitY=0;dashed=1;html=1;entryX=1;entryY=0.5;entryDx=0;entryDy=0;exitDx=0;exitDy=0;exitPerimeter=0;" edge="1" source="C5NPxq1pUjgtMMzN8J-K-82" parent="1" target="C5NPxq1pUjgtMMzN8J-K-58">
          <mxGeometry x="1" relative="1" as="geometry">
            <mxPoint x="657" y="560" as="targetPoint" />
          </mxGeometry>
        </mxCell>
        <mxCell id="C5NPxq1pUjgtMMzN8J-K-84" value="" style="edgeStyle=none;endArrow=none;exitX=0.8;exitY=0;dashed=1;html=1;entryX=0.5;entryY=1;entryDx=0;entryDy=0;" edge="1" source="C5NPxq1pUjgtMMzN8J-K-82" parent="1" target="C5NPxq1pUjgtMMzN8J-K-120">
          <mxGeometry x="1" relative="1" as="geometry">
            <mxPoint x="757" y="600" as="targetPoint" />
          </mxGeometry>
        </mxCell>
        <mxCell id="C5NPxq1pUjgtMMzN8J-K-85" value="Заблокувати/Розблокувати місця" style="shape=ellipse;html=1;strokeWidth=3;fontStyle=1;whiteSpace=wrap;align=center;perimeter=ellipsePerimeter;" vertex="1" parent="1">
          <mxGeometry x="680" y="500" width="120" height="60" as="geometry" />
        </mxCell>
        <mxCell id="C5NPxq1pUjgtMMzN8J-K-86" value="&amp;lt;&amp;lt;extend&amp;gt;&amp;gt;" style="edgeStyle=none;html=1;startArrow=open;endArrow=none;startSize=12;verticalAlign=bottom;dashed=1;labelBackgroundColor=none;exitX=0.5;exitY=1;exitDx=0;exitDy=0;" edge="1" parent="1" source="C5NPxq1pUjgtMMzN8J-K-46">
          <mxGeometry width="160" relative="1" as="geometry">
            <mxPoint x="430" y="490" as="sourcePoint" />
            <mxPoint x="640" y="380" as="targetPoint" />
          </mxGeometry>
        </mxCell>
        <mxCell id="C5NPxq1pUjgtMMzN8J-K-87" value="&amp;lt;&amp;lt;extend&amp;gt;&amp;gt;" style="edgeStyle=none;html=1;startArrow=open;endArrow=none;startSize=12;verticalAlign=bottom;dashed=1;labelBackgroundColor=none;entryX=0.5;entryY=0;entryDx=0;entryDy=0;" edge="1" parent="1" target="C5NPxq1pUjgtMMzN8J-K-76">
          <mxGeometry width="160" relative="1" as="geometry">
            <mxPoint x="530" y="300" as="sourcePoint" />
            <mxPoint x="590" y="490" as="targetPoint" />
          </mxGeometry>
        </mxCell>
        <mxCell id="C5NPxq1pUjgtMMzN8J-K-88" value="&amp;lt;&amp;lt;extend&amp;gt;&amp;gt;" style="edgeStyle=none;html=1;startArrow=open;endArrow=none;startSize=12;verticalAlign=bottom;dashed=1;labelBackgroundColor=none;exitX=0.402;exitY=1.013;exitDx=0;exitDy=0;exitPerimeter=0;entryX=0.443;entryY=-0.05;entryDx=0;entryDy=0;entryPerimeter=0;" edge="1" parent="1" source="C5NPxq1pUjgtMMzN8J-K-76" target="C5NPxq1pUjgtMMzN8J-K-75">
          <mxGeometry width="160" relative="1" as="geometry">
            <mxPoint x="430" y="490" as="sourcePoint" />
            <mxPoint x="590" y="490" as="targetPoint" />
          </mxGeometry>
        </mxCell>
        <mxCell id="C5NPxq1pUjgtMMzN8J-K-91" value="&amp;lt;&amp;lt;extend&amp;gt;&amp;gt;" style="edgeStyle=none;html=1;startArrow=open;endArrow=none;startSize=12;verticalAlign=bottom;dashed=1;labelBackgroundColor=none;exitX=0.5;exitY=1;exitDx=0;exitDy=0;entryX=0.5;entryY=0;entryDx=0;entryDy=0;" edge="1" parent="1" source="C5NPxq1pUjgtMMzN8J-K-94" target="C5NPxq1pUjgtMMzN8J-K-85">
          <mxGeometry width="160" relative="1" as="geometry">
            <mxPoint x="847" y="480" as="sourcePoint" />
            <mxPoint x="820" y="470" as="targetPoint" />
          </mxGeometry>
        </mxCell>
        <mxCell id="C5NPxq1pUjgtMMzN8J-K-92" value="&amp;lt;&amp;lt;extend&amp;gt;&amp;gt;" style="edgeStyle=none;html=1;startArrow=open;endArrow=none;startSize=12;verticalAlign=bottom;dashed=1;labelBackgroundColor=none;entryX=0;entryY=0.5;entryDx=0;entryDy=0;" edge="1" parent="1" target="C5NPxq1pUjgtMMzN8J-K-85">
          <mxGeometry width="160" relative="1" as="geometry">
            <mxPoint x="390" y="400" as="sourcePoint" />
            <mxPoint x="590" y="480" as="targetPoint" />
          </mxGeometry>
        </mxCell>
        <mxCell id="C5NPxq1pUjgtMMzN8J-K-93" value="Купити нову техніку" style="shape=ellipse;html=1;strokeWidth=3;fontStyle=1;whiteSpace=wrap;align=center;perimeter=ellipsePerimeter;" vertex="1" parent="1">
          <mxGeometry x="-10" y="420" width="120" height="60" as="geometry" />
        </mxCell>
        <mxCell id="C5NPxq1pUjgtMMzN8J-K-94" value="Обрати зал" style="shape=ellipse;html=1;strokeWidth=3;fontStyle=1;whiteSpace=wrap;align=center;perimeter=ellipsePerimeter;" vertex="1" parent="1">
          <mxGeometry x="787" y="353" width="120" height="60" as="geometry" />
        </mxCell>
        <mxCell id="C5NPxq1pUjgtMMzN8J-K-95" value="&amp;lt;&amp;lt;include&amp;gt;&amp;gt;" style="edgeStyle=none;html=1;endArrow=open;verticalAlign=bottom;dashed=1;labelBackgroundColor=none;exitX=1;exitY=0.5;exitDx=0;exitDy=0;" edge="1" parent="1" source="C5NPxq1pUjgtMMzN8J-K-100">
          <mxGeometry x="-0.3795" y="12" width="160" relative="1" as="geometry">
            <mxPoint x="430" y="530" as="sourcePoint" />
            <mxPoint x="460" y="610" as="targetPoint" />
            <mxPoint x="-1" y="-1" as="offset" />
          </mxGeometry>
        </mxCell>
        <mxCell id="C5NPxq1pUjgtMMzN8J-K-97" value="Зв&#39;язатись з постачальником" style="shape=ellipse;html=1;strokeWidth=3;fontStyle=1;whiteSpace=wrap;align=center;perimeter=ellipsePerimeter;" vertex="1" parent="1">
          <mxGeometry x="-10" y="720" width="120" height="60" as="geometry" />
        </mxCell>
        <mxCell id="C5NPxq1pUjgtMMzN8J-K-98" value="&amp;lt;&amp;lt;include&amp;gt;&amp;gt;" style="edgeStyle=none;html=1;endArrow=open;verticalAlign=bottom;dashed=1;labelBackgroundColor=none;entryX=0.5;entryY=0;entryDx=0;entryDy=0;exitX=0.5;exitY=1;exitDx=0;exitDy=0;" edge="1" parent="1" source="C5NPxq1pUjgtMMzN8J-K-93" target="C5NPxq1pUjgtMMzN8J-K-100">
          <mxGeometry width="160" relative="1" as="geometry">
            <mxPoint x="430" y="520" as="sourcePoint" />
            <mxPoint x="590" y="520" as="targetPoint" />
          </mxGeometry>
        </mxCell>
        <mxCell id="C5NPxq1pUjgtMMzN8J-K-100" value="Обрати вид техніки" style="shape=ellipse;html=1;strokeWidth=3;fontStyle=1;whiteSpace=wrap;align=center;perimeter=ellipsePerimeter;" vertex="1" parent="1">
          <mxGeometry x="-10" y="540" width="120" height="60" as="geometry" />
        </mxCell>
        <mxCell id="C5NPxq1pUjgtMMzN8J-K-101" value="&amp;lt;&amp;lt;include&amp;gt;&amp;gt;" style="edgeStyle=none;html=1;endArrow=open;verticalAlign=bottom;dashed=1;labelBackgroundColor=none;exitX=0.5;exitY=1;exitDx=0;exitDy=0;entryX=0.5;entryY=0;entryDx=0;entryDy=0;" edge="1" parent="1" source="C5NPxq1pUjgtMMzN8J-K-100" target="C5NPxq1pUjgtMMzN8J-K-97">
          <mxGeometry width="160" relative="1" as="geometry">
            <mxPoint x="440" y="510" as="sourcePoint" />
            <mxPoint x="600" y="510" as="targetPoint" />
          </mxGeometry>
        </mxCell>
        <mxCell id="C5NPxq1pUjgtMMzN8J-K-102" value="&amp;lt;&amp;lt;extend&amp;gt;&amp;gt;" style="edgeStyle=none;html=1;startArrow=open;endArrow=none;startSize=12;verticalAlign=bottom;dashed=1;labelBackgroundColor=none;exitX=0.418;exitY=1.023;exitDx=0;exitDy=0;exitPerimeter=0;" edge="1" parent="1" source="C5NPxq1pUjgtMMzN8J-K-52">
          <mxGeometry width="160" relative="1" as="geometry">
            <mxPoint x="80" y="310" as="sourcePoint" />
            <mxPoint x="50" y="410" as="targetPoint" />
          </mxGeometry>
        </mxCell>
        <mxCell id="C5NPxq1pUjgtMMzN8J-K-103" value="Додати/Звільнити когось" style="shape=ellipse;html=1;strokeWidth=3;fontStyle=1;whiteSpace=wrap;align=center;perimeter=ellipsePerimeter;" vertex="1" parent="1">
          <mxGeometry x="100" y="323" width="120" height="60" as="geometry" />
        </mxCell>
        <mxCell id="C5NPxq1pUjgtMMzN8J-K-104" value="Змінити зарпалту" style="shape=ellipse;html=1;strokeWidth=3;fontStyle=1;whiteSpace=wrap;align=center;perimeter=ellipsePerimeter;" vertex="1" parent="1">
          <mxGeometry x="140" y="390" width="120" height="60" as="geometry" />
        </mxCell>
        <mxCell id="C5NPxq1pUjgtMMzN8J-K-105" value="Призначити бонуси" style="shape=ellipse;html=1;strokeWidth=3;fontStyle=1;whiteSpace=wrap;align=center;perimeter=ellipsePerimeter;" vertex="1" parent="1">
          <mxGeometry x="210" y="450" width="120" height="60" as="geometry" />
        </mxCell>
        <mxCell id="C5NPxq1pUjgtMMzN8J-K-106" value="&amp;lt;&amp;lt;include&amp;gt;&amp;gt;" style="edgeStyle=none;html=1;endArrow=open;verticalAlign=bottom;dashed=1;labelBackgroundColor=none;exitX=0.5;exitY=1;exitDx=0;exitDy=0;" edge="1" parent="1" source="C5NPxq1pUjgtMMzN8J-K-105" target="C5NPxq1pUjgtMMzN8J-K-58">
          <mxGeometry width="160" relative="1" as="geometry">
            <mxPoint x="350" y="450" as="sourcePoint" />
            <mxPoint x="510" y="450" as="targetPoint" />
            <Array as="points">
              <mxPoint x="380" y="560" />
            </Array>
          </mxGeometry>
        </mxCell>
        <mxCell id="C5NPxq1pUjgtMMzN8J-K-107" value="&amp;lt;&amp;lt;include&amp;gt;&amp;gt;" style="edgeStyle=none;html=1;endArrow=open;verticalAlign=bottom;dashed=1;labelBackgroundColor=none;exitX=0.5;exitY=1;exitDx=0;exitDy=0;entryX=0;entryY=0.5;entryDx=0;entryDy=0;" edge="1" parent="1" source="C5NPxq1pUjgtMMzN8J-K-104" target="C5NPxq1pUjgtMMzN8J-K-58">
          <mxGeometry width="160" relative="1" as="geometry">
            <mxPoint x="350" y="450" as="sourcePoint" />
            <mxPoint x="510" y="450" as="targetPoint" />
            <Array as="points">
              <mxPoint x="200" y="510" />
            </Array>
          </mxGeometry>
        </mxCell>
        <mxCell id="C5NPxq1pUjgtMMzN8J-K-111" value="&amp;lt;&amp;lt;extend&amp;gt;&amp;gt;" style="edgeStyle=none;html=1;startArrow=open;endArrow=none;startSize=12;verticalAlign=bottom;dashed=1;labelBackgroundColor=none;exitX=0.442;exitY=1.023;exitDx=0;exitDy=0;exitPerimeter=0;entryX=0.5;entryY=0;entryDx=0;entryDy=0;" edge="1" parent="1" source="C5NPxq1pUjgtMMzN8J-K-45" target="C5NPxq1pUjgtMMzN8J-K-103">
          <mxGeometry width="160" relative="1" as="geometry">
            <mxPoint x="360" y="420" as="sourcePoint" />
            <mxPoint x="520" y="420" as="targetPoint" />
          </mxGeometry>
        </mxCell>
        <mxCell id="C5NPxq1pUjgtMMzN8J-K-112" value="&amp;lt;&amp;lt;extend&amp;gt;&amp;gt;" style="edgeStyle=none;html=1;startArrow=open;endArrow=none;startSize=12;verticalAlign=bottom;dashed=1;labelBackgroundColor=none;entryX=0.5;entryY=0;entryDx=0;entryDy=0;" edge="1" parent="1" target="C5NPxq1pUjgtMMzN8J-K-104">
          <mxGeometry width="160" relative="1" as="geometry">
            <mxPoint x="290" y="300" as="sourcePoint" />
            <mxPoint x="520" y="420" as="targetPoint" />
          </mxGeometry>
        </mxCell>
        <mxCell id="C5NPxq1pUjgtMMzN8J-K-113" value="&amp;lt;&amp;lt;extend&amp;gt;&amp;gt;" style="edgeStyle=none;html=1;startArrow=open;endArrow=none;startSize=12;verticalAlign=bottom;dashed=1;labelBackgroundColor=none;entryX=0.5;entryY=0;entryDx=0;entryDy=0;" edge="1" parent="1" target="C5NPxq1pUjgtMMzN8J-K-105">
          <mxGeometry width="160" relative="1" as="geometry">
            <mxPoint x="290" y="300" as="sourcePoint" />
            <mxPoint x="520" y="420" as="targetPoint" />
          </mxGeometry>
        </mxCell>
        <mxCell id="C5NPxq1pUjgtMMzN8J-K-118" value="Обрати фільм" style="shape=ellipse;html=1;strokeWidth=3;fontStyle=1;whiteSpace=wrap;align=center;perimeter=ellipsePerimeter;" vertex="1" parent="1">
          <mxGeometry x="970" y="350" width="120" height="60" as="geometry" />
        </mxCell>
        <mxCell id="C5NPxq1pUjgtMMzN8J-K-119" value="Обрати сеанс" style="shape=ellipse;html=1;strokeWidth=3;fontStyle=1;whiteSpace=wrap;align=center;perimeter=ellipsePerimeter;" vertex="1" parent="1">
          <mxGeometry x="1130" y="390" width="120" height="60" as="geometry" />
        </mxCell>
        <mxCell id="C5NPxq1pUjgtMMzN8J-K-120" value="Редагувати інформацію про фільм" style="shape=ellipse;html=1;strokeWidth=3;fontStyle=1;whiteSpace=wrap;align=center;perimeter=ellipsePerimeter;" vertex="1" parent="1">
          <mxGeometry x="1070" y="550" width="120" height="60" as="geometry" />
        </mxCell>
        <mxCell id="C5NPxq1pUjgtMMzN8J-K-122" value="&amp;lt;&amp;lt;extend&amp;gt;&amp;gt;" style="edgeStyle=none;html=1;startArrow=open;endArrow=none;startSize=12;verticalAlign=bottom;dashed=1;labelBackgroundColor=none;exitX=0.5;exitY=1;exitDx=0;exitDy=0;entryX=1;entryY=0.5;entryDx=0;entryDy=0;" edge="1" parent="1" source="C5NPxq1pUjgtMMzN8J-K-94" target="C5NPxq1pUjgtMMzN8J-K-93">
          <mxGeometry width="160" relative="1" as="geometry">
            <mxPoint x="400" y="500" as="sourcePoint" />
            <mxPoint x="560" y="500" as="targetPoint" />
            <Array as="points">
              <mxPoint x="840" y="790" />
              <mxPoint x="580" y="790" />
              <mxPoint x="260" y="790" />
            </Array>
          </mxGeometry>
        </mxCell>
        <mxCell id="C5NPxq1pUjgtMMzN8J-K-123" value="&amp;lt;&amp;lt;include&amp;gt;&amp;gt;" style="edgeStyle=none;html=1;endArrow=open;verticalAlign=bottom;dashed=1;labelBackgroundColor=none;entryX=0.5;entryY=0;entryDx=0;entryDy=0;" edge="1" parent="1" target="C5NPxq1pUjgtMMzN8J-K-119">
          <mxGeometry x="0.1625" width="160" relative="1" as="geometry">
            <mxPoint x="460" y="370" as="sourcePoint" />
            <mxPoint x="630" y="490" as="targetPoint" />
            <Array as="points">
              <mxPoint x="890" y="330" />
              <mxPoint x="1080" y="340" />
            </Array>
            <mxPoint as="offset" />
          </mxGeometry>
        </mxCell>
        <mxCell id="C5NPxq1pUjgtMMzN8J-K-124" value="&amp;lt;&amp;lt;extend&amp;gt;&amp;gt;" style="edgeStyle=none;html=1;startArrow=open;endArrow=none;startSize=12;verticalAlign=bottom;dashed=1;labelBackgroundColor=none;entryX=1;entryY=0.5;entryDx=0;entryDy=0;" edge="1" parent="1" source="C5NPxq1pUjgtMMzN8J-K-94" target="C5NPxq1pUjgtMMzN8J-K-75">
          <mxGeometry width="160" relative="1" as="geometry">
            <mxPoint x="610" y="500" as="sourcePoint" />
            <mxPoint x="770" y="500" as="targetPoint" />
            <Array as="points">
              <mxPoint x="650" y="460" />
            </Array>
          </mxGeometry>
        </mxCell>
        <mxCell id="C5NPxq1pUjgtMMzN8J-K-126" value="&amp;lt;&amp;lt;include&amp;gt;&amp;gt;" style="edgeStyle=none;html=1;endArrow=open;verticalAlign=bottom;dashed=1;labelBackgroundColor=none;exitX=0.5;exitY=1;exitDx=0;exitDy=0;entryX=0.5;entryY=0;entryDx=0;entryDy=0;" edge="1" parent="1" source="C5NPxq1pUjgtMMzN8J-K-47" target="C5NPxq1pUjgtMMzN8J-K-94">
          <mxGeometry width="160" relative="1" as="geometry">
            <mxPoint x="720" y="400" as="sourcePoint" />
            <mxPoint x="880" y="400" as="targetPoint" />
          </mxGeometry>
        </mxCell>
        <mxCell id="C5NPxq1pUjgtMMzN8J-K-127" value="Редагувати інформацію про зал" style="shape=ellipse;html=1;strokeWidth=3;fontStyle=1;whiteSpace=wrap;align=center;perimeter=ellipsePerimeter;" vertex="1" parent="1">
          <mxGeometry x="890" y="550" width="120" height="60" as="geometry" />
        </mxCell>
        <mxCell id="C5NPxq1pUjgtMMzN8J-K-128" value="&amp;lt;&amp;lt;extend&amp;gt;&amp;gt;" style="edgeStyle=none;html=1;startArrow=open;endArrow=none;startSize=12;verticalAlign=bottom;dashed=1;labelBackgroundColor=none;exitX=0.5;exitY=1;exitDx=0;exitDy=0;entryX=0.5;entryY=0;entryDx=0;entryDy=0;" edge="1" parent="1" source="C5NPxq1pUjgtMMzN8J-K-94" target="C5NPxq1pUjgtMMzN8J-K-127">
          <mxGeometry x="0.7412" y="3" width="160" relative="1" as="geometry">
            <mxPoint x="720" y="480" as="sourcePoint" />
            <mxPoint x="880" y="480" as="targetPoint" />
            <Array as="points">
              <mxPoint x="930" y="520" />
            </Array>
            <mxPoint as="offset" />
          </mxGeometry>
        </mxCell>
        <mxCell id="C5NPxq1pUjgtMMzN8J-K-129" value="&amp;lt;&amp;lt;extend&amp;gt;&amp;gt;" style="edgeStyle=none;html=1;startArrow=open;endArrow=none;startSize=12;verticalAlign=bottom;dashed=1;labelBackgroundColor=none;exitX=0.5;exitY=1;exitDx=0;exitDy=0;entryX=0.5;entryY=0;entryDx=0;entryDy=0;" edge="1" parent="1" source="C5NPxq1pUjgtMMzN8J-K-51" target="C5NPxq1pUjgtMMzN8J-K-118">
          <mxGeometry width="160" relative="1" as="geometry">
            <mxPoint x="790" y="450" as="sourcePoint" />
            <mxPoint x="950" y="450" as="targetPoint" />
          </mxGeometry>
        </mxCell>
        <mxCell id="C5NPxq1pUjgtMMzN8J-K-130" value="&amp;lt;&amp;lt;extend&amp;gt;&amp;gt;" style="edgeStyle=none;html=1;startArrow=open;endArrow=none;startSize=12;verticalAlign=bottom;dashed=1;labelBackgroundColor=none;exitX=0.5;exitY=1;exitDx=0;exitDy=0;entryX=0.5;entryY=0;entryDx=0;entryDy=0;" edge="1" parent="1" source="C5NPxq1pUjgtMMzN8J-K-118" target="C5NPxq1pUjgtMMzN8J-K-120">
          <mxGeometry x="0.3243" y="5" width="160" relative="1" as="geometry">
            <mxPoint x="790" y="420" as="sourcePoint" />
            <mxPoint x="1080" y="467" as="targetPoint" />
            <mxPoint as="offset" />
          </mxGeometry>
        </mxCell>
        <mxCell id="C5NPxq1pUjgtMMzN8J-K-131" value="&amp;lt;&amp;lt;include&amp;gt;&amp;gt;" style="edgeStyle=none;html=1;endArrow=open;verticalAlign=bottom;dashed=1;labelBackgroundColor=none;exitX=1;exitY=0.5;exitDx=0;exitDy=0;entryX=0.015;entryY=0.586;entryDx=0;entryDy=0;entryPerimeter=0;" edge="1" parent="1" source="C5NPxq1pUjgtMMzN8J-K-85" target="C5NPxq1pUjgtMMzN8J-K-119">
          <mxGeometry x="0.0183" y="-4" width="160" relative="1" as="geometry">
            <mxPoint x="810" y="460" as="sourcePoint" />
            <mxPoint x="970" y="460" as="targetPoint" />
            <mxPoint as="offset" />
          </mxGeometry>
        </mxCell>
        <mxCell id="C5NPxq1pUjgtMMzN8J-K-132" value="&amp;lt;&amp;lt;include&amp;gt;&amp;gt;" style="edgeStyle=none;html=1;endArrow=open;verticalAlign=bottom;dashed=1;labelBackgroundColor=none;exitX=1;exitY=0.5;exitDx=0;exitDy=0;entryX=0;entryY=0.5;entryDx=0;entryDy=0;" edge="1" parent="1" source="C5NPxq1pUjgtMMzN8J-K-75" target="C5NPxq1pUjgtMMzN8J-K-119">
          <mxGeometry x="0.0405" y="-4" width="160" relative="1" as="geometry">
            <mxPoint x="610" y="460" as="sourcePoint" />
            <mxPoint x="990" y="430" as="targetPoint" />
            <Array as="points">
              <mxPoint x="710" y="480" />
            </Array>
            <mxPoint as="offset" />
          </mxGeometry>
        </mxCell>
        <mxCell id="C5NPxq1pUjgtMMzN8J-K-133" value="&amp;lt;&amp;lt;extend&amp;gt;&amp;gt;" style="edgeStyle=none;html=1;startArrow=open;endArrow=none;startSize=12;verticalAlign=bottom;dashed=1;labelBackgroundColor=none;exitX=0;exitY=0.5;exitDx=0;exitDy=0;entryX=1;entryY=0.5;entryDx=0;entryDy=0;" edge="1" parent="1" source="C5NPxq1pUjgtMMzN8J-K-118" target="C5NPxq1pUjgtMMzN8J-K-94">
          <mxGeometry width="160" relative="1" as="geometry">
            <mxPoint x="750" y="500" as="sourcePoint" />
            <mxPoint x="910" y="500" as="targetPoint" />
          </mxGeometry>
        </mxCell>
        <mxCell id="C5NPxq1pUjgtMMzN8J-K-134" value="" style="edgeStyle=none;endArrow=none;exitX=0.5;exitY=0;dashed=1;html=1;entryX=0.5;entryY=1;entryDx=0;entryDy=0;exitDx=0;exitDy=0;exitPerimeter=0;" edge="1" parent="1" source="C5NPxq1pUjgtMMzN8J-K-82" target="C5NPxq1pUjgtMMzN8J-K-127">
          <mxGeometry x="1" relative="1" as="geometry">
            <mxPoint x="1140.0000000000005" y="620" as="targetPoint" />
            <mxPoint x="1005.0000000000005" y="730" as="sourcePoint" />
          </mxGeometry>
        </mxCell>
        <mxCell id="C5NPxq1pUjgtMMzN8J-K-135" value="" style="edgeStyle=none;endArrow=none;exitX=0.271;exitY=-0.1;dashed=1;html=1;entryX=0.5;entryY=1;entryDx=0;entryDy=0;exitDx=0;exitDy=0;exitPerimeter=0;" edge="1" parent="1" source="C5NPxq1pUjgtMMzN8J-K-82" target="C5NPxq1pUjgtMMzN8J-K-85">
          <mxGeometry x="1" relative="1" as="geometry">
            <mxPoint x="1150.0000000000005" y="630" as="targetPoint" />
            <mxPoint x="1015.0000000000005" y="740" as="sourcePoint" />
          </mxGeometry>
        </mxCell>
        <mxCell id="C5NPxq1pUjgtMMzN8J-K-136" value="" style="edgeStyle=none;endArrow=none;exitX=0;exitY=0;dashed=1;html=1;entryX=0.5;entryY=1;entryDx=0;entryDy=0;exitDx=0;exitDy=0;exitPerimeter=0;" edge="1" parent="1" source="C5NPxq1pUjgtMMzN8J-K-82" target="C5NPxq1pUjgtMMzN8J-K-78">
          <mxGeometry x="1" relative="1" as="geometry">
            <mxPoint x="1160.0000000000005" y="640" as="targetPoint" />
            <mxPoint x="1025.0000000000005" y="750" as="sourcePoint" />
            <Array as="points">
              <mxPoint x="680" y="600" />
            </Array>
          </mxGeometry>
        </mxCell>
      </root>
    </mxGraphModel>
  </diagram>
</mxfile>
